<svg width="955" height="64" viewBox="0 0 955 64" fill="none" xmlns="http://www.w3.org/2000/svg" role="img" aria-label="Activity pulse: contribution intensity for the last 40 days.">
  <style>
    .pu-cell { opacity: .65; animation: pu-wave 5s ease-in-out infinite; }
    @keyframes pu-wave { 0% { opacity: .65; } 10% { opacity: 1; } 22% { opacity: .65; } 100% { opacity: .65; } }
    @media (prefers-reduced-motion: reduce) { .pu-cell { animation: none; opacity: 1; } }
  </style>
  <rect x="139.5" y="25.5" width="13" height="13" rx="3" fill="#2f81f7" fill-opacity="NaN" class="pu-cell" style="animation-delay:0.00s"><title>undefined: undefined</title></rect><rect x="156.5" y="25.5" width="13" height="13" rx="3" fill="#2f81f7" fill-opacity="NaN" class="pu-cell" style="animation-delay:0.09s"><title>undefined: undefined</title></rect><rect x="173.5" y="25.5" width="13" height="13" rx="3" fill="#2f81f7" fill-opacity="NaN" class="pu-cell" style="animation-delay:0.17s"><title>undefined: undefined</title></rect><rect x="190.5" y="25.5" width="13" height="13" rx="3" fill="#2f81f7" fill-opacity="NaN" class="pu-cell" style="animation-delay:0.26s"><title>undefined: undefined</title></rect><rect x="207.5" y="25.5" width="13" height="13" rx="3" fill="#2f81f7" fill-opacity="NaN" class="pu-cell" style="animation-delay:0.34s"><title>undefined: undefined</title></rect><rect x="224.5" y="25.5" width="13" height="13" rx="3" fill="#2f81f7" fill-opacity="NaN" class="pu-cell" style="animation-delay:0.43s"><title>undefined: undefined</title></rect><rect x="241.5" y="25.5" width="13" height="13" rx="3" fill="#2f81f7" fill-opacity="NaN" class="pu-cell" style="animation-delay:0.51s"><title>undefined: undefined</title></rect><rect x="258.5" y="25.5" width="13" height="13" rx="3" fill="#2f81f7" fill-opacity="NaN" class="pu-cell" style="animation-delay:0.60s"><title>undefined: undefined</title></rect><rect x="275.5" y="25.5" width="13" height="13" rx="3" fill="#2f81f7" fill-opacity="NaN" class="pu-cell" style="animation-delay:0.68s"><title>undefined: undefined</title></rect><rect x="292.5" y="25.5" width="13" height="13" rx="3" fill="#2f81f7" fill-opacity="NaN" class="pu-cell" style="animation-delay:0.77s"><title>undefined: undefined</title></rect><rect x="309.5" y="25.5" width="13" height="13" rx="3" fill="#2f81f7" fill-opacity="NaN" class="pu-cell" style="animation-delay:0.85s"><title>undefined: undefined</title></rect><rect x="326.5" y="25.5" width="13" height="13" rx="3" fill="#2f81f7" fill-opacity="NaN" class="pu-cell" style="animation-delay:0.94s"><title>undefined: undefined</title></rect><rect x="343.5" y="25.5" width="13" height="13" rx="3" fill="#2f81f7" fill-opacity="NaN" class="pu-cell" style="animation-delay:1.02s"><title>undefined: undefined</title></rect><rect x="360.5" y="25.5" width="13" height="13" rx="3" fill="#2f81f7" fill-opacity="NaN" class="pu-cell" style="animation-delay:1.10s"><title>undefined: undefined</title></rect><rect x="377.5" y="25.5" width="13" height="13" rx="3" fill="#2f81f7" fill-opacity="NaN" class="pu-cell" style="animation-delay:1.19s"><title>undefined: undefined</title></rect><rect x="394.5" y="25.5" width="13" height="13" rx="3" fill="#2f81f7" fill-opacity="NaN" class="pu-cell" style="animation-delay:1.28s"><title>undefined: undefined</title></rect><rect x="411.5" y="25.5" width="13" height="13" rx="3" fill="#2f81f7" fill-opacity="NaN" class="pu-cell" style="animation-delay:1.36s"><title>undefined: undefined</title></rect><rect x="428.5" y="25.5" width="13" height="13" rx="3" fill="#2f81f7" fill-opacity="NaN" class="pu-cell" style="animation-delay:1.45s"><title>undefined: undefined</title></rect><rect x="445.5" y="25.5" width="13" height="13" rx="3" fill="#2f81f7" fill-opacity="NaN" class="pu-cell" style="animation-delay:1.53s"><title>undefined: undefined</title></rect><rect x="462.5" y="25.5" width="13" height="13" rx="3" fill="#2f81f7" fill-opacity="NaN" class="pu-cell" style="animation-delay:1.62s"><title>undefined: undefined</title></rect><rect x="479.5" y="25.5" width="13" height="13" rx="3" fill="#2f81f7" fill-opacity="NaN" class="pu-cell" style="animation-delay:1.70s"><title>undefined: undefined</title></rect><rect x="496.5" y="25.5" width="13" height="13" rx="3" fill="#2f81f7" fill-opacity="NaN" class="pu-cell" style="animation-delay:1.79s"><title>undefined: undefined</title></rect><rect x="513.5" y="25.5" width="13" height="13" rx="3" fill="#2f81f7" fill-opacity="NaN" class="pu-cell" style="animation-delay:1.87s"><title>undefined: undefined</title></rect><rect x="530.5" y="25.5" width="13" height="13" rx="3" fill="#2f81f7" fill-opacity="NaN" class="pu-cell" style="animation-delay:1.96s"><title>undefined: undefined</title></rect><rect x="547.5" y="25.5" width="13" height="13" rx="3" fill="#2f81f7" fill-opacity="NaN" class="pu-cell" style="animation-delay:2.04s"><title>undefined: undefined</title></rect><rect x="564.5" y="25.5" width="13" height="13" rx="3" fill="#2f81f7" fill-opacity="NaN" class="pu-cell" style="animation-delay:2.13s"><title>undefined: undefined</title></rect><rect x="581.5" y="25.5" width="13" height="13" rx="3" fill="#2f81f7" fill-opacity="NaN" class="pu-cell" style="animation-delay:2.21s"><title>undefined: undefined</title></rect><rect x="598.5" y="25.5" width="13" height="13" rx="3" fill="#2f81f7" fill-opacity="NaN" class="pu-cell" style="animation-delay:2.30s"><title>undefined: undefined</title></rect><rect x="615.5" y="25.5" width="13" height="13" rx="3" fill="#2f81f7" fill-opacity="NaN" class="pu-cell" style="animation-delay:2.38s"><title>undefined: undefined</title></rect><rect x="632.5" y="25.5" width="13" height="13" rx="3" fill="#2f81f7" fill-opacity="NaN" class="pu-cell" style="animation-delay:2.47s"><title>undefined: undefined</title></rect><rect x="649.5" y="25.5" width="13" height="13" rx="3" fill="#2f81f7" fill-opacity="NaN" class="pu-cell" style="animation-delay:2.55s"><title>undefined: undefined</title></rect><rect x="666.5" y="25.5" width="13" height="13" rx="3" fill="#2f81f7" fill-opacity="NaN" class="pu-cell" style="animation-delay:2.64s"><title>undefined: undefined</title></rect><rect x="683.5" y="25.5" width="13" height="13" rx="3" fill="#2f81f7" fill-opacity="NaN" class="pu-cell" style="animation-delay:2.72s"><title>undefined: undefined</title></rect><rect x="700.5" y="25.5" width="13" height="13" rx="3" fill="#2f81f7" fill-opacity="NaN" class="pu-cell" style="animation-delay:2.81s"><title>undefined: undefined</title></rect><rect x="717.5" y="25.5" width="13" height="13" rx="3" fill="#2f81f7" fill-opacity="NaN" class="pu-cell" style="animation-delay:2.89s"><title>undefined: undefined</title></rect><rect x="734.5" y="25.5" width="13" height="13" rx="3" fill="#2f81f7" fill-opacity="NaN" class="pu-cell" style="animation-delay:2.98s"><title>undefined: undefined</title></rect><rect x="751.5" y="25.5" width="13" height="13" rx="3" fill="#2f81f7" fill-opacity="NaN" class="pu-cell" style="animation-delay:3.06s"><title>undefined: undefined</title></rect><rect x="768.5" y="25.5" width="13" height="13" rx="3" fill="#2f81f7" fill-opacity="NaN" class="pu-cell" style="animation-delay:3.15s"><title>undefined: undefined</title></rect><rect x="785.5" y="25.5" width="13" height="13" rx="3" fill="#2f81f7" fill-opacity="NaN" class="pu-cell" style="animation-delay:3.23s"><title>undefined: undefined</title></rect><rect x="802.5" y="25.5" width="13" height="13" rx="3" fill="#2f81f7" fill-opacity="NaN" class="pu-cell" style="animation-delay:3.32s"><title>undefined: undefined</title></rect>
</svg>